<?xml version="1.0" encoding="UTF-8" standalone="no"?>
<!-- Created with Inkscape (http://www.inkscape.org/) -->

<svg
   width="143.78616mm"
   height="62.571915mm"
   viewBox="0 0 143.78616 62.571914"
   version="1.1"
   id="svg1"
   xmlns="http://www.w3.org/2000/svg"
   xmlns:svg="http://www.w3.org/2000/svg">
  <defs
     id="defs1" />
  <g
     id="layer1">
    <path
       id="path22"
       style="fill:#1a1a1a;stroke-width:0.499999;stroke-linejoin:bevel"
       d="m 46.722207,3e-5 c -12.41874,0 -12.68655,12.370817 0,12.370817 h 12.90051 c 12.17757,0 12.44512,12.65401 0,12.65401 H 9.4645368 c -12.27764,0 -12.95656,12.44683 0,12.62094 l 28.3295302,0.38085 c 12.29332,0 12.29332,12.33258 0,12.33258 L 9.4645368,49.978377 c -12.68655,0 -12.41874,12.59354 0,12.59354 5.2487402,-0.18215 112.5703732,-0.0395 125.0099432,0 12.41557,-0.0176 12.41558,-12.59354 0,-12.59354 0,0 -58.634213,-0.0672 -71.641573,-0.0672 -13.00737,0 -13.42545,-11.88456 -0.46772,-11.88456 l 34.432,-0.38085 c 12.442103,-0.13757 12.442863,-12.62094 0,-12.62094 h -12.17807 c -12.81923,0 -12.44286,-12.65401 0,-12.65401 h 37.440103 c 12.44286,0 12.44286,-12.370815 0,-12.370817 z" />
  </g>
</svg>
